<svg id="Lag_6" data-name="Lag 6" xmlns="http://www.w3.org/2000/svg" viewBox="0 0 1366 768"><defs><style>.cls-1{fill:#fff;stroke:#000;stroke-miterlimit:10;stroke-width:0.75px;}.cls-2{fill:#020202;}</style></defs><ellipse class="cls-1" cx="985.13" cy="551.44" rx="44.47" ry="79.02" transform="translate(390.73 1511.27) rotate(-87.47)"/><path class="cls-2" d="M915.33,571.18s71.83-47.13,139,4.6C1054.32,575.78,988.16,629.27,915.33,571.18Z"/><ellipse class="cls-1" cx="655.07" cy="689.18" rx="44.47" ry="79.02" transform="translate(-62.36 1313.18) rotate(-87.47)"/><path class="cls-2" d="M585.27,708.92s71.83-47.14,139,4.6C724.25,713.52,658.1,767,585.27,708.92Z"/><ellipse class="cls-1" cx="1099.67" cy="688.06" rx="44.47" ry="79.02" transform="translate(363.73 1756.28) rotate(-87.47)"/><path class="cls-2" d="M1029.87,707.8s71.83-47.14,139,4.6C1168.85,712.4,1102.7,765.88,1029.87,707.8Z"/><ellipse class="cls-1" cx="556.54" cy="573.77" rx="44.47" ry="79.02" transform="translate(-41.24 1104.44) rotate(-87.47)"/><path class="cls-2" d="M486.74,593.51s71.83-47.13,139,4.6C625.73,598.11,559.57,651.59,486.74,593.51Z"/><ellipse class="cls-1" cx="779.46" cy="562.74" rx="44.47" ry="79.02" transform="translate(182.85 1316.59) rotate(-87.47)"/><path class="cls-2" d="M709.66,582.48s71.83-47.13,139,4.6C848.64,587.08,782.49,640.57,709.66,582.48Z"/><ellipse class="cls-1" cx="877.04" cy="688.12" rx="79.02" ry="44.47"/><path class="cls-2" d="M808.18,710.92s69.68-50.26,139.06-1.54C947.24,709.38,883.51,765.73,808.18,710.92Z"/></svg>