<svg id="Lag_6" data-name="Lag 6" xmlns="http://www.w3.org/2000/svg" viewBox="0 0 599.62 220.98"><defs><style>.cls-1{fill:#d3d3d3;stroke:#000;stroke-miterlimit:10;stroke-width:0.25px;}.cls-2{fill:#020202;}</style></defs><ellipse class="cls-1" cx="841.93" cy="329.47" rx="44.47" ry="79.02" transform="translate(154.21 872.28) rotate(-87.47)"/><path class="cls-2" d="M772.13,349.2s71.83-47.13,139,4.61C911.12,353.81,845,407.29,772.13,349.2Z" transform="translate(-321.4 -283.75)"/><ellipse class="cls-1" cx="631.51" cy="328.44" rx="44.47" ry="79.02" transform="translate(-45.89 661.09) rotate(-87.47)"/><path class="cls-2" d="M561.71,348.17s71.83-47.13,139,4.61C700.7,352.78,634.54,406.26,561.71,348.17Z" transform="translate(-321.4 -283.75)"/><ellipse class="cls-1" cx="400.5" cy="328.44" rx="44.47" ry="79.02" transform="translate(-266.71 430.29) rotate(-87.47)"/><path class="cls-2" d="M330.69,348.17s71.84-47.13,139,4.61C469.68,352.78,403.53,406.26,330.69,348.17Z" transform="translate(-321.4 -283.75)"/><ellipse class="cls-1" cx="400.5" cy="457.93" rx="44.47" ry="79.02" transform="translate(-396.07 554.06) rotate(-87.47)"/><path class="cls-2" d="M330.69,477.66s71.84-47.13,139,4.61C469.68,482.27,403.53,535.75,330.69,477.66Z" transform="translate(-321.4 -283.75)"/><ellipse class="cls-1" cx="631.51" cy="456.81" rx="44.47" ry="79.02" transform="translate(-174.13 783.79) rotate(-87.47)"/><path class="cls-2" d="M561.71,476.54s71.83-47.13,139,4.61C700.7,481.15,634.54,534.63,561.71,476.54Z" transform="translate(-321.4 -283.75)"/><ellipse class="cls-1" cx="841.93" cy="456.9" rx="44.47" ry="79.02" transform="translate(26.91 994.09) rotate(-87.47)"/><path class="cls-2" d="M772.13,476.63s71.83-47.13,139,4.61C911.12,481.24,845,534.72,772.13,476.63Z" transform="translate(-321.4 -283.75)"/></svg>