<svg id="Lag_8" data-name="Lag 8" xmlns="http://www.w3.org/2000/svg" viewBox="0 0 1366 768"><defs><style>.cls-1,.cls-3{fill:#828282;}.cls-2,.cls-5{fill:#a0a0a0;}.cls-3,.cls-4,.cls-5{stroke:#000;stroke-miterlimit:10;stroke-width:0.25px;}.cls-4{fill:#fff;}</style></defs><polygon class="cls-1" points="33.04 23.98 541.68 11.58 452.92 113.47 33.04 120.36 33.04 23.98"/><polygon class="cls-2" points="460.45 420.5 558.99 588.45 541.68 11.58 452.92 113.47 460.45 420.5"/><rect class="cls-2" x="460.45" y="695.3" width="98.54" height="61.12"/><polygon class="cls-3" points="593.6 638.71 204.11 638.71 182.16 695.3 570.29 695.3 593.6 638.71"/><polygon class="cls-4" points="33.04 229.81 33.04 309.66 207.18 638.71 593.6 638.71 351.41 218.79 33.04 229.81"/><polygon class="cls-5" points="33.04 412.91 33.04 309.66 207.18 638.71 182.16 695.3 33.04 412.91"/><polygon points="33.04 756.42 33.04 412.91 182.16 695.3 460.45 695.3 460.45 756.42 33.04 756.42"/><polygon points="33.04 229.81 351.41 218.79 460.13 407.28 452.92 113.47 33.04 120.36 33.04 229.81"/></svg>