<?xml version="1.0" encoding="utf-8"?>
<!-- Generator: Adobe Illustrator 25.2.3, SVG Export Plug-In . SVG Version: 6.00 Build 0)  -->
<svg version="1.1" id="Lag_8" xmlns="http://www.w3.org/2000/svg" xmlns:xlink="http://www.w3.org/1999/xlink" x="0px" y="0px"
	 viewBox="0 0 601.3 768" style="enable-background:new 0 0 601.3 768;" xml:space="preserve">
<style type="text/css">
	.st0{fill:#828282;}
	.st1{fill:#A0A0A0;}
	.st2{fill:#828282;stroke:#000000;stroke-width:0.25;stroke-miterlimit:10;}
	.st3{fill:#FFFFFF;stroke:#000000;stroke-width:0.25;stroke-miterlimit:10;}
	.st4{fill:#A0A0A0;stroke:#000000;stroke-width:0.25;stroke-miterlimit:10;}
</style>
<polygon class="st0" points="33,24 541.7,11.6 452.9,113.5 33,120.4 "/>
<polygon class="st1" points="460.4,420.5 559,588.4 541.7,11.6 452.9,113.5 "/>
<rect x="460.4" y="695.3" class="st1" width="98.5" height="61.1"/>
<polygon class="st2" points="593.6,638.7 204.1,638.7 182.2,695.3 570.3,695.3 "/>
<polygon class="st3" points="33,229.8 33,309.7 207.2,638.7 593.6,638.7 351.4,218.8 "/>
<polygon class="st4" points="33,412.9 33,309.7 207.2,638.7 182.2,695.3 "/>
<polygon points="33,756.4 33,412.9 182.2,695.3 460.4,695.3 460.4,756.4 "/>
<polygon points="33,229.8 351.4,218.8 460.1,407.3 452.9,113.5 33,120.4 "/>
</svg>
