<svg id="Lag_10" data-name="Lag 10" xmlns="http://www.w3.org/2000/svg" viewBox="0 0 562.52 511.52"><defs><style>.cls-1,.cls-3{fill:#fff;}.cls-1,.cls-2,.cls-6{stroke:#000;stroke-miterlimit:10;stroke-width:0.25px;}.cls-2,.cls-4{fill:#fcfafa;}.cls-5{fill:#6d6d6d;}.cls-6{fill:none;}</style></defs><polygon class="cls-1" points="231.82 159.76 137.28 188.37 158.29 227.4 251.58 198.03 231.82 159.76"/><polygon class="cls-2" points="298.45 144 430.44 109.61 450.71 136.46 319.68 178.76 298.45 144"/><polygon class="cls-1" points="248.75 41.66 402.2 289.54 370.87 302.6 216.66 47.57 248.75 41.66"/><polygon class="cls-3" points="25.98 48.81 216.57 429.75 233.85 358.2 162.81 225.19 64.27 42.32 25.98 48.81"/><polygon class="cls-3" points="362.14 0.13 64.27 42.32 83.97 78.89 377.7 24.1 362.14 0.13"/><polygon class="cls-3" points="216.57 429.75 562.33 263.92 516.9 239.33 233.85 358.2 216.57 429.75"/><polygon class="cls-4" points="377.7 24.1 562.33 263.92 516.9 239.33 356.15 28.12 377.7 24.1"/><polygon class="cls-5" points="247.82 199.17 279.63 251.93 192.49 279.46 162.89 224.96 247.82 199.17"/><polygon points="356.15 28.12 335.85 83.94 364.6 129.97 421.16 114.88 356.15 28.12"/><polygon points="440.57 139.04 417.53 202.4 460.09 263.19 516.9 239.33 440.57 139.04"/><polygon points="220.45 53.43 369.65 301.17 318.03 322.85 198.52 113.74 220.45 53.43"/><polygon points="25.98 48.81 0 120.25 186.82 511.52 216.57 429.75 25.98 48.81"/><polygon class="cls-5" points="562.33 263.92 537.16 333.12 186.82 511.52 216.57 429.75 562.33 263.92"/><polygon class="cls-5" points="220.45 53.43 198.52 113.74 115.51 137.42 83.97 78.89 220.45 53.43"/><polygon class="cls-5" points="356.15 28.12 335.72 84.29 282.77 98.2 251.58 47.63 356.15 28.12"/><polygon class="cls-5" points="440.57 139.04 417.53 202.4 359.25 222.23 329.58 174.12 440.57 139.04"/><polygon class="cls-6" points="25.98 48.81 362.14 0.13 562.33 263.92 216.57 429.75 25.98 48.81"/><line class="cls-6" x1="83.97" y1="78.89" x2="142.17" y2="186.89"/><line class="cls-6" x1="162.96" y1="225.47" x2="233.85" y2="358.2"/><line class="cls-6" x1="369.65" y1="301.17" x2="233.32" y2="357.79"/><line class="cls-6" x1="516.9" y1="239.33" x2="401.29" y2="288.03"/></svg>