<svg xmlns="http://www.w3.org/2000/svg" xmlns:xlink="http://www.w3.org/1999/xlink" width="390" height="844" viewBox="0 0 390 844"><defs><style>.a{clip-path:url(#b);}.b{font-size:28px;}.b,.c{font-family:BebasNeueBold, Bebas Neue;}.c{font-size:23px;}.d{stroke:#000;}.e{stroke:none;}.f{fill:none;}.g{fill:#fff;}</style><clipPath id="b"><rect width="390" height="844"/></clipPath></defs><g id="a" class="a"><rect class="g" width="390" height="844"/><g transform="translate(24 189)"><text class="b" transform="translate(0 25)"><tspan x="0" y="0">Programmer og software jeg bruger</tspan></text><text class="c" transform="translate(0 67)"><tspan x="0" y="0">Adobe XD</tspan><tspan x="0" y="28">Adobe Illustrator </tspan><tspan x="0" y="56">Adobe InDesign</tspan><tspan x="0" y="84">Adobe Photoshop</tspan><tspan x="0" y="112">Adobe Dimension</tspan><tspan x="0" y="140">Adobe Premiere Pro</tspan><tspan x="0" y="168">Adobe Fresco</tspan><tspan x="0" y="196">Autodesktop Maya</tspan><tspan x="0" y="224">Autodesktop Sketchbook</tspan><tspan x="0" y="252"></tspan><tspan x="0" y="280">HTML, CSS og JavaScript</tspan><tspan x="0" y="308">Processing</tspan><tspan x="0" y="336">Visual Studio </tspan><tspan x="0" y="364"></tspan></text><g class="d" transform="translate(239 54)"><ellipse class="e" cx="7.5" cy="7" rx="7.5" ry="7"/><ellipse class="f" cx="7.5" cy="7" rx="7" ry="6.5"/></g><g class="d" transform="translate(239 81)"><ellipse class="e" cx="7.5" cy="7" rx="7.5" ry="7"/><ellipse class="f" cx="7.5" cy="7" rx="7" ry="6.5"/></g><g class="d" transform="translate(239 108)"><ellipse class="e" cx="7.5" cy="7" rx="7.5" ry="7"/><ellipse class="f" cx="7.5" cy="7" rx="7" ry="6.5"/></g><g class="d" transform="translate(240 135)"><ellipse class="e" cx="7.5" cy="7" rx="7.5" ry="7"/><ellipse class="f" cx="7.5" cy="7" rx="7" ry="6.5"/></g><g class="d" transform="translate(239 162)"><ellipse class="e" cx="7.5" cy="7" rx="7.5" ry="7"/><ellipse class="f" cx="7.5" cy="7" rx="7" ry="6.5"/></g><g class="d" transform="translate(239 189)"><ellipse class="e" cx="7.5" cy="7" rx="7.5" ry="7"/><ellipse class="f" cx="7.5" cy="7" rx="7" ry="6.5"/></g><g class="d" transform="translate(239 216)"><ellipse class="e" cx="7.5" cy="7" rx="7.5" ry="7"/><ellipse class="f" cx="7.5" cy="7" rx="7" ry="6.5"/></g><g class="d" transform="translate(239 243)"><ellipse class="e" cx="7.5" cy="7" rx="7.5" ry="7"/><ellipse class="f" cx="7.5" cy="7" rx="7" ry="6.5"/></g><g class="d" transform="translate(239 270)"><ellipse class="e" cx="7.5" cy="7" rx="7.5" ry="7"/><ellipse class="f" cx="7.5" cy="7" rx="7" ry="6.5"/></g><g class="d" transform="translate(260 54)"><circle class="e" cx="7" cy="7" r="7"/><circle class="f" cx="7" cy="7" r="6.5"/></g><g class="d" transform="translate(260 81)"><circle class="e" cx="7" cy="7" r="7"/><circle class="f" cx="7" cy="7" r="6.5"/></g><g class="d" transform="translate(260 108)"><circle class="e" cx="7" cy="7" r="7"/><circle class="f" cx="7" cy="7" r="6.5"/></g><g class="d" transform="translate(261 135)"><circle class="e" cx="7" cy="7" r="7"/><circle class="f" cx="7" cy="7" r="6.5"/></g><g class="d" transform="translate(260 162)"><circle class="e" cx="7" cy="7" r="7"/><circle class="f" cx="7" cy="7" r="6.5"/></g><g class="d" transform="translate(260 189)"><circle class="e" cx="7" cy="7" r="7"/><circle class="f" cx="7" cy="7" r="6.5"/></g><g class="d" transform="translate(260 216)"><circle class="e" cx="7" cy="7" r="7"/><circle class="f" cx="7" cy="7" r="6.5"/></g><g class="d" transform="translate(260 243)"><circle class="e" cx="7" cy="7" r="7"/><circle class="f" cx="7" cy="7" r="6.5"/></g><g class="d" transform="translate(260 270)"><circle class="e" cx="7" cy="7" r="7"/><circle class="f" cx="7" cy="7" r="6.5"/></g><g class="d" transform="translate(280 54)"><ellipse class="e" cx="7.5" cy="7" rx="7.5" ry="7"/><ellipse class="f" cx="7.5" cy="7" rx="7" ry="6.5"/></g><g class="d" transform="translate(280 81)"><ellipse class="e" cx="7.5" cy="7" rx="7.5" ry="7"/><ellipse class="f" cx="7.5" cy="7" rx="7" ry="6.5"/></g><g class="d" transform="translate(280 108)"><ellipse class="e" cx="7.5" cy="7" rx="7.5" ry="7"/><ellipse class="f" cx="7.5" cy="7" rx="7" ry="6.5"/></g><g class="d" transform="translate(281 135)"><ellipse class="e" cx="7.5" cy="7" rx="7.5" ry="7"/><ellipse class="f" cx="7.5" cy="7" rx="7" ry="6.5"/></g><g class="d" transform="translate(280 162)"><ellipse class="e" cx="7.5" cy="7" rx="7.5" ry="7"/><ellipse class="f" cx="7.5" cy="7" rx="7" ry="6.5"/></g><g class="d" transform="translate(280 189)"><ellipse class="e" cx="7.5" cy="7" rx="7.5" ry="7"/><ellipse class="f" cx="7.5" cy="7" rx="7" ry="6.5"/></g><g class="d" transform="translate(280 216)"><ellipse class="e" cx="7.5" cy="7" rx="7.5" ry="7"/><ellipse class="f" cx="7.5" cy="7" rx="7" ry="6.5"/></g><g class="d" transform="translate(280 243)"><ellipse class="e" cx="7.5" cy="7" rx="7.5" ry="7"/><ellipse class="f" cx="7.5" cy="7" rx="7" ry="6.5"/></g><g class="d" transform="translate(280 270)"><ellipse class="e" cx="7.5" cy="7" rx="7.5" ry="7"/><ellipse class="f" cx="7.5" cy="7" rx="7" ry="6.5"/></g><g class="d" transform="translate(219 54)"><ellipse class="e" cx="7.5" cy="7" rx="7.5" ry="7"/><ellipse class="f" cx="7.5" cy="7" rx="7" ry="6.5"/></g><g class="d" transform="translate(219 81)"><ellipse class="e" cx="7.5" cy="7" rx="7.5" ry="7"/><ellipse class="f" cx="7.5" cy="7" rx="7" ry="6.5"/></g><g class="d" transform="translate(219 108)"><ellipse class="e" cx="7.5" cy="7" rx="7.5" ry="7"/><ellipse class="f" cx="7.5" cy="7" rx="7" ry="6.5"/></g><g class="d" transform="translate(220 135)"><ellipse class="e" cx="7.5" cy="7" rx="7.5" ry="7"/><ellipse class="f" cx="7.5" cy="7" rx="7" ry="6.5"/></g><g class="d" transform="translate(219 162)"><ellipse class="e" cx="7.5" cy="7" rx="7.5" ry="7"/><ellipse class="f" cx="7.5" cy="7" rx="7" ry="6.5"/></g><g class="d" transform="translate(219 189)"><ellipse class="e" cx="7.5" cy="7" rx="7.5" ry="7"/><ellipse class="f" cx="7.5" cy="7" rx="7" ry="6.5"/></g><g class="d" transform="translate(219 216)"><ellipse class="e" cx="7.5" cy="7" rx="7.5" ry="7"/><ellipse class="f" cx="7.5" cy="7" rx="7" ry="6.5"/></g><g class="d" transform="translate(219 243)"><ellipse class="e" cx="7.5" cy="7" rx="7.5" ry="7"/><ellipse class="f" cx="7.5" cy="7" rx="7" ry="6.5"/></g><g class="d" transform="translate(219 270)"><ellipse class="e" cx="7.5" cy="7" rx="7.5" ry="7"/><ellipse class="f" cx="7.5" cy="7" rx="7" ry="6.5"/></g></g></g></svg>