<svg xmlns="http://www.w3.org/2000/svg" viewBox="0 0 1206.74 715.37"><defs><style>.cls-1,.cls-5{fill:#fff;}.cls-2{fill:#020202;opacity:0.28;}.cls-3{fill:#939393;}.cls-4{fill:#353434;}.cls-5{stroke:#000;stroke-width:0.25px;}.cls-5,.cls-6{stroke-miterlimit:10;}.cls-6{fill:none;stroke:#666;stroke-width:4px;}.cls-7{fill:#474747;}.cls-8{fill:#605f5f;}.cls-9{fill:#777676;}.cls-10{fill:#a0a0a0;}.cls-11{fill:#c6c6c6;}</style></defs><g id="Lag_1" data-name="Lag 1"><path class="cls-1" d="M452.05,11.81V479.1h869.67V11.81ZM1071.3,198.54a34.63,34.63,0,0,1-20.43,5.48c-13.8-.84-27.42,1-41.17,1.54a34.5,34.5,0,0,1-21.88-6.5c-5.66.12-11.69-2-14-6.23-6.3-11.7-3.44-22.81-2.69-35.06a327.89,327.89,0,0,0,.33-41.11c-.91-14.08-3.13-28.14-2.85-42.26.11-5.54.67-11.08.74-16.62a27,27,0,0,1-1.1-6.2,20.11,20.11,0,0,1,.41-5.15c-.45-4.33-.76-8.59.48-13.1,1.86-6.73,11.25-10.64,19-8.88a17.23,17.23,0,0,1,2.37.73,39.55,39.55,0,0,1,12.23-2,37.44,37.44,0,0,1,23.2,7.61c1.45.09,2.93.23,4.43.4,2.81.24,5.62.4,8.44.43a43.66,43.66,0,0,1,21.32-6.39c19.08-.7,33.93,13.56,34.53,28.38,1,23.46-3.24,46.95-.26,70.36,2.92,15.49,7,30.7,7.12,46.53C1101.73,185.21,1088.06,196.38,1071.3,198.54Z" transform="translate(-114.98 -11.81)"/><polygon class="cls-1" points="337.07 467.29 0 715.37 981.81 715.37 1206.74 467.29 337.07 467.29"/></g><g id="Lag_4" data-name="Lag 4"><polygon class="cls-2" points="1016.75 293.08 1020.45 461.08 899.82 465.47 899.82 451.85 944.74 309.79 1016.75 293.08"/><path class="cls-2" d="M773.23,658.58S1024,597,1060.9,572.91c0,0,146.14-70.49,74.44-100.2l-121.22,4.42s30.12,21.69-60.31,63.11L764.43,608.82Z" transform="translate(-114.98 -11.81)"/><polygon class="cls-3" points="853.23 7.73 985.89 9.76 966 22.95 853.23 22.95 853.23 7.73"/><polygon class="cls-4" points="971.09 179.13 988.36 183.19 985.89 9.76 965.53 22.95 971.09 179.13"/><polygon class="cls-5" points="1008.11 185.72 864.95 189.27 856.31 183.19 971.09 179.13 1008.11 185.72"/><polygon class="cls-5" points="1020.45 215.64 1008.11 210.06 864.34 210.06 864.34 215.64 1020.45 215.64"/><polygon class="cls-5" points="1016.75 237.95 864.34 239.98 858.99 246.86 1016.75 246.86 1016.75 237.95"/><polygon class="cls-5" points="1016.75 264.83 864.34 264.83 850.14 273.96 1008.11 276.49 1016.75 264.83"/><line class="cls-6" x1="854.77" y1="8.73" x2="857.86" y2="183.17"/><polygon class="cls-5" points="1008.11 299.31 850.14 296.27 832.25 304.89 988.36 310.97 1008.11 299.31"/><polygon class="cls-5" points="991.45 334.3 832.66 329.23 808.18 336.84 962.58 348.5 991.45 334.3"/><polygon class="cls-5" points="811.27 363.2 960.6 373.85 924.19 387.55 782.27 369.36 811.27 363.2"/><polygon class="cls-5" points="782.27 398.19 920.18 419.49 867.42 430.14 749.56 404.28 782.27 398.19"/><polygon class="cls-5" points="864.34 457.02 749.56 432.17 708.22 439.27 808.18 470.2 864.34 457.02"/><polygon class="cls-5" points="808.18 506.2 708.22 466.65 660.09 470.2 734.14 519.9 808.18 506.2"/><polygon class="cls-5" points="734.14 558.94 664.41 508.74 618.13 513.81 660.09 569.59 734.14 558.94"/><polygon class="cls-5" points="660.09 609.65 618.13 550.83 572.47 553.36 584.81 614.72 660.09 609.65"/><polygon points="864.95 189.27 864.34 210.06 856.31 205.74 856.31 183.19 864.95 189.27"/><polygon points="1016.75 264.83 1008.11 276.49 1008.11 299.31 1016.75 294.27 1016.75 264.83"/><polygon points="991.45 335.81 988.36 311.37 1008.11 299.14 1010.24 332.48 991.45 335.81"/><polygon points="963.45 377.99 991.45 365.57 991.45 334.3 962.58 348.5 963.45 377.99"/><polygon points="960.6 407.63 960.6 373.85 922.85 387.55 918.69 423.25 960.6 407.63"/><polygon points="867.42 430.14 867.42 460.91 920.18 448.09 920.18 419.49 867.42 430.14"/><polygon points="864.34 495.76 864.34 457.02 808.18 470.2 808.18 506.2 864.34 495.76"/><polygon points="734.14 558.94 808.18 547.84 808.18 506.2 734.14 519.9 734.14 558.94"/><polygon points="734.14 596.31 734.14 558.94 660.09 569.59 660.09 609.65 734.14 596.31"/><polygon points="584.81 614.72 588.6 646.78 660.09 646.78 660.09 609.65 584.81 614.72"/><polygon class="cls-4" points="864.95 189.27 864.34 210.06 1008.11 210.06 1008.11 185.72 864.95 189.27"/><polygon class="cls-7" points="864.34 215.64 864.34 239.98 1016.75 237.95 1020.45 215.64 864.34 215.64"/><polygon class="cls-8" points="858.99 246.86 864.34 264.83 1016.75 264.83 1016.75 246.86 858.99 246.86"/><polygon class="cls-9" points="850.14 273.96 850.14 296.27 1008.11 299.31 1008.11 276.49 850.14 273.96"/><polygon class="cls-3" points="832.25 304.89 832.66 329.23 991.45 334.3 988.36 310.97 832.25 304.89"/><polygon class="cls-3" points="808.18 336.84 811.27 363.2 960.6 373.85 963.45 377.99 962.58 348.5 808.18 336.84"/><polygon class="cls-3" points="924.19 387.55 920.18 419.49 782.27 398.19 782.27 369.36 924.19 387.55"/><polygon class="cls-10" points="867.42 430.14 867.42 460.91 864.34 457.02 749.56 432.17 749.56 404.28 867.42 430.14"/><polygon class="cls-11" points="708.22 439.27 708.22 466.65 808.18 506.2 808.18 470.2 708.22 439.27"/><polygon class="cls-11" points="660.09 470.2 664.41 508.74 734.14 558.94 734.14 519.9 660.09 470.2"/><polygon class="cls-11" points="618.13 513.81 618.13 550.83 660.09 609.65 660.09 569.59 618.13 513.81"/><polygon class="cls-3" points="572.47 553.36 572.47 574.37 588.6 646.78 584.81 614.72 572.47 553.36"/><rect class="cls-3" x="960.6" y="373.85" width="2.85" height="4.13"/></g></svg>