<?xml version="1.0" encoding="utf-8"?>
<!-- Generator: Adobe Illustrator 25.2.3, SVG Export Plug-In . SVG Version: 6.00 Build 0)  -->
<svg version="1.1" id="Lag_4" xmlns="http://www.w3.org/2000/svg" xmlns:xlink="http://www.w3.org/1999/xlink" x="0px" y="0px"
	 viewBox="0 0 392.9 650.5" style="enable-background:new 0 0 392.9 650.5;" xml:space="preserve">
<style type="text/css">
	.st0{opacity:0.28;fill:#020202;enable-background:new    ;}
	.st1{fill:#353434;}
	.st2{fill:#FFFFFF;stroke:#000000;stroke-width:0.25;stroke-miterlimit:10;}
	.st3{fill:#474747;}
	.st4{fill:#605F5F;}
	.st5{fill:#777676;}
	.st6{fill:#939393;}
	.st7{fill:#A0A0A0;}
	.st8{fill:#C6C6C6;}
	.st9{fill:#9B9A9A;}
</style>
<image style="overflow:visible;enable-background:new    ;" width="1000" height="1333" xlink:href="himmel_erstatning.png"  transform="matrix(0.1 0 0 0.1232 235.47 11)">
</image>
<polygon class="st0" points="373.2,289 376.4,460.7 275,465.2 275,451.3 312.8,306.1 "/>
<path class="st0" d="M72.2,650.5c0,0,210.6-62.9,241.6-87.5c0,0,122.7-72,62.5-102.4L274.5,465c0,0,25.3,22.2-50.7,64.5l-159,70.1
	L72.2,650.5z"/>
<polygon class="st1" points="334.6,173.6 347,177.8 345.3,0 330.7,13.5 "/>
<polygon class="st2" points="366,179.3 245.8,182.9 238.5,176.7 334.9,172.6 "/>
<polygon class="st2" points="376.4,209.9 366,204.2 245.2,204.2 245.2,209.9 "/>
<polygon class="st2" points="373.2,232.7 245.2,234.8 240.8,241.8 373.2,241.8 "/>
<polygon class="st2" points="373.2,260.2 245.2,260.2 233.3,269.5 366,272.1 "/>
<polygon class="st2" points="366,295.4 233.3,292.3 218.3,301.1 349.4,307.3 "/>
<polygon class="st2" points="352,331.1 218.6,326 198.1,333.7 327.8,345.7 "/>
<polygon class="st2" points="200.7,360.7 326.1,371.6 295.5,385.6 176.3,367 "/>
<polygon class="st2" points="176.3,396.4 292.1,418.2 247.8,429.1 148.9,402.7 "/>
<polygon class="st2" points="245.2,456.5 148.9,431.2 114.2,438.4 198.1,470 "/>
<polygon class="st2" points="198.1,506.8 114.2,466.4 73.7,470 135.9,520.8 "/>
<polygon class="st2" points="135.9,560.7 77.4,509.4 38.5,514.6 73.7,571.6 "/>
<polygon class="st2" points="73.7,612.5 38.5,552.4 0.2,555 10.5,617.7 "/>
<polygon points="245.8,182.9 245.2,204.2 238.5,199.8 238.5,176.7 "/>
<polygon points="373.2,260.2 366,272.1 366,295.4 373.2,290.2 "/>
<polygon points="352,332.7 349.4,307.7 366,295.2 367.8,329.3 "/>
<polygon points="328.5,375.8 352,363.1 352,331.1 327.8,345.7 "/>
<polygon points="326.1,406.1 326.1,371.6 294.4,385.6 290.9,422 "/>
<polygon points="247.8,429.1 247.8,460.5 292.1,447.4 292.1,418.2 "/>
<polygon points="245.2,496.1 245.2,456.5 198.1,470 198.1,506.8 "/>
<polygon points="135.9,560.7 198.1,549.4 198.1,506.8 135.9,520.8 "/>
<polygon points="135.9,598.9 135.9,560.7 73.7,571.6 73.7,612.5 "/>
<polygon points="10.5,617.7 13.7,650.5 73.7,650.5 73.7,612.5 "/>
<polygon class="st1" points="245.8,182.9 245.2,204.2 366,204.2 366,179.3 "/>
<polygon class="st3" points="245.2,209.9 245.2,234.8 373.2,232.7 376.4,209.9 "/>
<polygon class="st4" points="240.8,241.8 245.2,260.2 373.2,260.2 373.2,241.8 "/>
<polygon class="st5" points="233.3,269.5 233.3,292.3 366,295.4 366,272.1 "/>
<polygon class="st6" points="218.3,301.1 218.6,326 352,331.1 349.4,307.3 "/>
<polygon class="st6" points="198.1,333.7 200.7,360.7 326.1,371.6 328.5,375.8 327.8,345.7 "/>
<polygon class="st6" points="295.5,385.6 292.1,418.2 176.3,396.4 176.3,367 "/>
<polygon class="st7" points="247.8,429.1 247.8,460.5 245.2,456.5 148.9,431.2 148.9,402.7 "/>
<polygon class="st8" points="114.2,438.4 114.2,466.4 198.1,506.8 198.1,470 "/>
<polygon class="st8" points="73.7,470 77.4,509.4 135.9,560.7 135.9,520.8 "/>
<polygon class="st8" points="38.5,514.6 38.5,552.4 73.7,612.5 73.7,571.6 "/>
<polygon class="st6" points="0.2,555 0.2,576.5 13.7,650.5 10.5,617.7 "/>
<rect x="326.1" y="371.6" class="st6" width="2.4" height="4.2"/>
<polygon class="st9" points="235.5,15.2 235.5,0 345.3,0 330.7,13.5 "/>
</svg>
